<svg width="32" height="32" viewBox="0 0 32 32" fill="none" xmlns="http://www.w3.org/2000/svg">
<g clip-path="url(#clip0_2_300)">
<path d="M15.9375 30C23.704 30 30 23.704 30 15.9375C30 8.171 23.704 1.875 15.9375 1.875C8.171 1.875 1.875 8.171 1.875 15.9375C1.875 23.704 8.171 30 15.9375 30Z" fill="white" stroke="#363F46" stroke-width="2.42578" stroke-linecap="round"/>
<path d="M8.30304 9.99902C8.30304 9.99902 6.3584 12.1928 6.3584 16.0258C6.3584 19.8588 8.30304 21.9642 8.30304 21.9642" fill="white"/>
<path d="M8.30304 9.99902C8.30304 9.99902 6.3584 12.1928 6.3584 16.0258C6.3584 19.8588 8.30304 21.9642 8.30304 21.9642" stroke="#FC7E0F" stroke-width="2.42578" stroke-linecap="round"/>
<path d="M23.7959 9.99902C23.7959 9.99902 25.7405 12.1928 25.7405 16.0258C25.7405 19.8588 23.7959 21.9642 23.7959 21.9642" fill="white"/>
<path d="M23.7959 9.99902C23.7959 9.99902 25.7405 12.1928 25.7405 16.0258C25.7405 19.8588 23.7959 21.9642 23.7959 21.9642" stroke="#FC7E0F" stroke-width="2.42578" stroke-linecap="round"/>
<path d="M20.6943 12.5625C20.6943 12.5625 22.0042 14.1938 21.972 16.0179C21.9318 18.2116 20.7104 19.417 20.7104 19.417" fill="white"/>
<path d="M20.6943 12.5625C20.6943 12.5625 22.0042 14.1938 21.972 16.0179C21.9318 18.2116 20.7104 19.417 20.7104 19.417" stroke="#FC7E0F" stroke-width="2.42578" stroke-linecap="round"/>
<path d="M11.3408 12.5625C11.3408 12.5625 10.0309 14.1938 10.0631 16.0179C10.1033 18.2116 11.3247 19.417 11.3247 19.417" fill="white"/>
<path d="M11.3408 12.5625C11.3408 12.5625 10.0309 14.1938 10.0631 16.0179C10.1033 18.2116 11.3247 19.417 11.3247 19.417" stroke="#FC7E0F" stroke-width="2.42578" stroke-linecap="round"/>
<path d="M15.9358 18.1206C17.1413 18.1206 18.1186 17.1433 18.1186 15.9377C18.1186 14.7322 17.1413 13.7549 15.9358 13.7549C14.7302 13.7549 13.7529 14.7322 13.7529 15.9377C13.7529 17.1433 14.7302 18.1206 15.9358 18.1206Z" fill="#363F46"/>
<path d="M16.3047 17.9767L14.7562 17.5605L12.1777 27.1924L13.7262 27.6085L16.3047 17.9767Z" fill="#363F46"/>
<path d="M15.7051 17.964L17.2467 17.5547L19.8116 27.1934L18.2699 27.6027L15.7051 17.964Z" fill="#363F46"/>
<path d="M14.2725 23.1618L14.8455 22.5752L18.8155 26.4429L18.2425 27.0296L14.2725 23.1618Z" fill="#363F46"/>
<path d="M17.6351 23.1825L17.1166 22.6572L13.1807 26.5659L13.6991 27.0912L17.6351 23.1825Z" fill="#363F46"/>
</g>
<defs>
<clipPath id="clip0_2_300">
<rect width="32" height="32" fill="white"/>
</clipPath>
</defs>
</svg>
