<svg width="32" height="32" viewBox="0 0 32 32" fill="none" xmlns="http://www.w3.org/2000/svg">
<path d="M16.1863 0C7.61062 0 0.65918 7.16334 0.65918 16C0.65918 24.8366 7.61062 32 16.1863 32C24.7621 32 31.7135 24.8366 31.7135 16C31.7135 7.16334 24.7621 0 16.1863 0ZM20.9963 16.148C20.9963 13.4927 18.9072 11.3397 16.3299 11.3397C13.7531 11.3397 11.664 13.4923 11.664 16.148C11.664 18.8033 13.7531 20.9559 16.3299 20.9559V23.7036C12.2806 23.7036 8.9975 20.321 8.9975 16.148C8.9975 11.9751 12.2802 8.5924 16.3299 8.5924C20.3797 8.5924 23.6625 11.9751 23.6625 16.148H20.9963ZM25.4955 16.148C25.4955 10.9321 21.3922 6.7036 16.3299 6.7036C11.2682 6.7036 7.16483 10.9321 7.16483 16.148C7.16483 21.3638 11.2682 25.592 16.3299 25.592V28.7404C9.58097 28.7404 4.10941 23.1024 4.10941 16.148C4.10941 9.19327 9.58097 3.5556 16.3299 3.5556C23.0793 3.5556 28.5506 9.19327 28.5506 16.148H25.4955Z" fill="#F43E37"/>
</svg>
